grf
version=1
nRows=14
nColumns=37
inDegrees=no
endheader
time	ground_force_1_vx	ground_force_1_vy	ground_force_1_vz	ground_force_1_px	ground_force_1_py	ground_force_1_pz	ground_moment_1_mx	ground_moment_1_my	ground_moment_1_mz	ground_force_2_vx	ground_force_2_vy	ground_force_2_vz	ground_force_2_px	ground_force_2_py	ground_force_2_pz	ground_moment_2_mx	ground_moment_2_my	ground_moment_2_mz	ground_force_3_vx	ground_force_3_vy	ground_force_3_vz	ground_force_3_px	ground_force_3_py	ground_force_3_pz	ground_moment_3_mx	ground_moment_3_my	ground_moment_3_mz	ground_force_4_vx	ground_force_4_vy	ground_force_4_vz	ground_force_4_px	ground_force_4_py	ground_force_4_pz	ground_moment_4_mx	ground_moment_4_my	ground_moment_4_mz
      0.00000000	      0.00000000	     -0.00000000	      0.00000000	      0.00000000	      0.00000000	      0.00000000	      0.00000000	      0.00000000	      0.00000000	      7.85461617	     23.89103508	   -166.10690308	   -353.71706549	   -929.02288043	      0.00000000	      0.00000000	     -0.00000000	  -1105.45664936	     -4.73391794	    -18.99315602	   -593.57354736	   -333.37456130	   -805.71979004	      0.00000000	      0.00000000	     -0.00000000	   -144.69251645	      0.00000000	     -0.00000000	      0.00000000	      0.00000000	      0.00000000	      0.00000000	      0.00000000	      0.00000000	      0.00000000
      0.01000000	      0.00000000	     -0.00000000	      0.00000000	      0.00000000	      0.00000000	      0.00000000	      0.00000000	      0.00000000	      0.00000000	      7.91127491	     24.39495087	   -167.23120117	   -351.10593463	   -929.62163950	      0.00000000	      0.00000000	     -0.00000000	  -1059.43982516	     -4.53837940	    -18.71009787	   -591.70751953	   -333.39954938	   -806.09817362	      0.00000000	      0.00000000	     -0.00000000	   -256.72344074	      0.00000000	     -0.00000000	      0.00000000	      0.00000000	      0.00000000	      0.00000000	      0.00000000	      0.00000000	      0.00000000
      0.02000000	      0.00000000	     -0.00000000	      0.00000000	      0.00000000	      0.00000000	      0.00000000	      0.00000000	      0.00000000	      0.00000000	      7.64011574	     24.33259964	   -166.46101379	   -352.40120563	   -925.55968248	      0.00000000	      0.00000000	     -0.00000000	  -1061.69421653	     -5.15183037	    -18.31093362	   -587.83331299	   -333.48134844	   -807.72930312	      0.00000000	     -0.00000000	     -0.00000000	    -75.23088314	      0.00000000	     -0.00000000	      0.00000000	      0.00000000	      0.00000000	      0.00000000	      0.00000000	      0.00000000	      0.00000000
      0.03000000	      0.00000000	     -0.00000000	      0.00000000	      0.00000000	      0.00000000	      0.00000000	      0.00000000	      0.00000000	      0.00000000	      8.04647732	     24.63181305	   -168.23333740	   -350.46010155	   -928.33434869	      0.00000000	      0.00000000	     -0.00000000	  -1040.75653829	     -5.13097730	    -18.07899240	   -588.55761719	   -333.44290247	   -806.66768473	      0.00000000	      0.00000000	     -0.00000000	   -171.75159040	      0.00000000	     -0.00000000	      0.00000000	      0.00000000	      0.00000000	      0.00000000	      0.00000000	      0.00000000	      0.00000000
      0.04000000	      0.00000000	     -0.00000000	      0.00000000	      0.00000000	      0.00000000	      0.00000000	      0.00000000	      0.00000000	      0.00000000	      7.87937641	     24.74677277	   -168.12416077	   -352.23877145	   -926.61414552	      0.00000000	      0.00000000	     -0.00000000	  -1135.95050460	     -5.35135711	    -17.81497146	   -587.14984131	   -332.77598243	   -807.53987811	      0.00000000	      0.00000000	     -0.00000000	   -113.24869000	      0.00000000	     -0.00000000	      0.00000000	      0.00000000	      0.00000000	      0.00000000	      0.00000000	      0.00000000	      0.00000000
      0.05000000	      0.00000000	     -0.00000000	      0.00000000	      0.00000000	      0.00000000	      0.00000000	      0.00000000	      0.00000000	      0.00000000	      8.16154480	     24.85068703	   -168.23231506	   -351.35297276	   -926.43299218	      0.00000000	      0.00000000	     -0.00000000	   -942.35887489	     -5.73404371	    -17.62120197	   -587.73596191	   -332.99851983	   -807.29338306	      0.00000000	      0.00000000	     -0.00000000	   -226.97928464	      0.00000000	     -0.00000000	      0.00000000	      0.00000000	      0.00000000	      0.00000000	      0.00000000	      0.00000000	      0.00000000
      0.06000000	      0.00000000	     -0.00000000	      0.00000000	      0.00000000	      0.00000000	      0.00000000	      0.00000000	      0.00000000	      0.00000000	      7.93783522	     24.80732918	   -167.63772583	   -350.95821653	   -928.03481407	      0.00000000	      0.00000000	     -0.00000000	  -1102.41917500	     -6.06312716	    -17.72565026	   -589.83831787	   -332.53433078	   -806.42786244	      0.00000000	      0.00000000	     -0.00000000	   -114.06355826	      0.00000000	     -0.00000000	      0.00000000	      0.00000000	      0.00000000	      0.00000000	      0.00000000	      0.00000000	      0.00000000
      0.07000000	      0.00000000	     -0.00000000	      0.00000000	      0.00000000	      0.00000000	      0.00000000	      0.00000000	      0.00000000	      0.00000000	      7.89666939	     24.57005882	   -168.12004089	   -351.23199444	   -927.24786323	      0.00000000	      0.00000000	     -0.00000000	  -1025.14332926	     -5.84112795	    -17.26542231	   -588.84765625	   -332.87998745	   -807.20810353	      0.00000000	      0.00000000	     -0.00000000	   -244.49954392	      0.00000000	     -0.00000000	      0.00000000	      0.00000000	      0.00000000	      0.00000000	      0.00000000	      0.00000000	      0.00000000
      0.08000000	      0.00000000	     -0.00000000	      0.00000000	      0.00000000	      0.00000000	      0.00000000	      0.00000000	      0.00000000	      0.00000000	      7.81629467	     24.33259964	   -167.88142395	   -350.70541961	   -929.60533779	      0.00000000	      0.00000000	     -0.00000000	  -1117.51613674	     -5.85607534	    -16.98797556	   -588.30676270	   -332.99475238	   -807.39769795	      0.00000000	      0.00000000	     -0.00000000	   -176.26615222	      0.00000000	     -0.00000000	      0.00000000	      0.00000000	      0.00000000	      0.00000000	      0.00000000	      0.00000000	      0.00000000
      0.09000000	      0.00000000	     -0.00000000	      0.00000000	      0.00000000	      0.00000000	      0.00000000	      0.00000000	      0.00000000	      0.00000000	      7.96889639	     24.33257294	   -166.69961548	   -349.53466829	   -928.11735089	      0.00000000	      0.00000000	     -0.00000000	  -1031.07902425	     -5.94412568	    -16.73695894	   -589.13244629	   -332.77383517	   -806.47822533	      0.00000000	      0.00000000	     -0.00000000	   -292.33222573	      0.00000000	     -0.00000000	      0.00000000	      0.00000000	      0.00000000	      0.00000000	      0.00000000	      0.00000000	      0.00000000
      0.10000000	      0.00000000	     -0.00000000	      0.00000000	      0.00000000	      0.00000000	      0.00000000	      0.00000000	      0.00000000	      0.00000000	      8.17833614	     23.94654465	   -164.69677734	   -350.96785345	   -927.75088275	      0.00000000	      0.00000000	     -0.00000000	   -992.70410915	     -5.67749169	    -16.69279812	   -589.36791992	   -332.45475232	   -806.72512020	      0.00000000	      0.00000000	     -0.00000000	   -423.07574006	      0.00000000	     -0.00000000	      0.00000000	      0.00000000	      0.00000000	      0.00000000	      0.00000000	      0.00000000	      0.00000000
      0.11000000	      0.00000000	     -0.00000000	      0.00000000	      0.00000000	      0.00000000	      0.00000000	      0.00000000	      0.00000000	      0.00000000	      7.89502239	     24.05045509	   -163.64076233	   -350.26280633	   -926.08194735	      0.00000000	      0.00000000	     -0.00000000	  -1130.82143662	     -6.03248932	    -16.57510895	   -591.05493164	   -332.78936393	   -805.77260809	      0.00000000	      0.00000000	      0.00000000	   -210.32163028	      0.00000000	     -0.00000000	      0.00000000	      0.00000000	      0.00000000	      0.00000000	      0.00000000	      0.00000000	      0.00000000
      0.12000000	      0.00000000	     -0.00000000	      0.00000000	      0.00000000	      0.00000000	      0.00000000	      0.00000000	      0.00000000	      0.00000000	      7.58268309	     23.58977699	   -164.46467590	   -350.29412776	   -928.37377005	      0.00000000	      0.00000000	     -0.00000000	  -1274.17953496	     -5.82525447	    -16.66326853	   -594.02264404	   -332.86541980	   -804.56234355	      0.00000000	      0.00000000	     -0.00000000	   -221.03681327	      0.00000000	     -0.00000000	      0.00000000	      0.00000000	      0.00000000	      0.00000000	      0.00000000	      0.00000000	      0.00000000
      0.13000000	      0.00000000	     -0.00000000	      0.00000000	      0.00000000	      0.00000000	      0.00000000	      0.00000000	      0.00000000	      0.00000000	      8.01423550	     23.32255936	   -163.05151367	   -350.04494062	   -928.52663362	      0.00000000	      0.00000000	     -0.00000000	  -1044.62050884	     -5.61907915	    -16.76717328	   -594.77893066	   -332.85355853	   -805.26826107	      0.00000000	     -0.00000000	     -0.00000000	   -303.26076240	      0.00000000	     -0.00000000	      0.00000000	      0.00000000	      0.00000000	      0.00000000	      0.00000000	      0.00000000	      0.00000000
